<svg width="32" height="32" viewBox="0 0 64 64" xmlns="http://www.w3.org/2000/svg">
  <defs>
    <linearGradient id="botGradient" x1="0%" y1="0%" x2="100%" y2="100%">
      <stop offset="0%" style="stop-color:#6366F1;stop-opacity:1" />
      <stop offset="100%" style="stop-color:#8B5CF6;stop-opacity:1" />
    </linearGradient>
  </defs>
  
  <!-- Bot Head -->
  <rect x="12" y="10" width="40" height="32" rx="10" ry="10" fill="url(#botGradient)" />
  
  <!-- Bot Eyes -->
  <circle cx="24" cy="24" r="4" fill="white" />
  <circle cx="40" cy="24" r="4" fill="white" />
  <circle cx="24" cy="24" r="2" fill="#1A1A1A" />
  <circle cx="40" cy="24" r="2" fill="#1A1A1A" />
  
  <!-- Bot Mouth -->
  <rect x="22" y="36" width="20" height="2" rx="1" ry="1" fill="white" />
  
  <!-- Bot Antenna -->
  <rect x="30" y="4" width="4" height="6" rx="2" ry="2" fill="#8B5CF6" />
  <circle cx="32" cy="4" r="3" fill="#6366F1" />
  
  <!-- Bot Body -->
  <path d="M20 42 L20 54 L26 54 L26 50 L38 50 L38 54 L44 54 L44 42 Z" fill="#8B5CF6" />
  
  <!-- Message Bubbles -->
  <circle cx="52" cy="16" r="3" fill="white" opacity="0.8" />
  <circle cx="56" cy="24" r="2" fill="white" opacity="0.6" />
  <circle cx="54" cy="32" r="1.5" fill="white" opacity="0.4" />
</svg>