<?xml version="1.0" encoding="UTF-8" standalone="no"?>
<svg width="200" height="200" viewBox="0 0 200 200" xmlns="http://www.w3.org/2000/svg">
  <!-- Definitions for gradients and filters -->
  <defs>
    <linearGradient id="bgGradient" x1="0%" y1="0%" x2="100%" y2="100%">
      <stop offset="0%" stop-color="#6366f1" />
      <stop offset="100%" stop-color="#4f46e5" />
    </linearGradient>
    
    <linearGradient id="glowGradient" x1="0%" y1="0%" x2="100%" y2="100%">
      <stop offset="0%" stop-color="#818cf8" />
      <stop offset="100%" stop-color="#6366f1" />
    </linearGradient>
    
    <filter id="glow" x="-20%" y="-20%" width="140%" height="140%">
      <feGaussianBlur stdDeviation="4" result="blur" />
      <feComposite in="SourceGraphic" in2="blur" operator="over" />
    </filter>
    
    <filter id="shadow" x="-10%" y="-10%" width="120%" height="120%">
      <feGaussianBlur in="SourceAlpha" stdDeviation="2" />
      <feOffset dx="0" dy="2" result="offsetblur" />
      <feComponentTransfer>
        <feFuncA type="linear" slope="0.5" />
      </feComponentTransfer>
      <feMerge>
        <feMergeNode />
        <feMergeNode in="SourceGraphic" />
      </feMerge>
    </filter>
  </defs>
  
  <!-- Background circle -->
  <circle cx="100" cy="100" r="95" fill="url(#bgGradient)" filter="url(#shadow)" />
  
  <!-- Number 42 -->
  <g filter="url(#shadow)">
    <text x="100" y="125" font-family="'Arial', sans-serif" font-size="85" font-weight="bold" fill="white" text-anchor="middle">42</text>
  </g>
  
  <!-- Brain/Intelligence symbol (simplified) -->
  <g transform="translate(100, 60) scale(0.5)" filter="url(#glow)">
    <path d="M0,0 C-30,-20 -40,20 -30,30 C-20,40 0,35 0,50 C0,35 20,40 30,30 C40,20 30,-20 0,0 Z" 
          fill="white" stroke="white" stroke-width="3" />
  </g>
  
  <!-- Magnifying glass (research) -->
  <g transform="translate(65, 140) rotate(-25)" filter="url(#shadow)">
    <circle cx="0" cy="0" r="15" fill="none" stroke="white" stroke-width="5" />
    <line x1="12" y1="12" x2="25" y2="25" stroke="white" stroke-width="5" stroke-linecap="round" />
  </g>
  
  <!-- Document/paper (research) -->
  <g transform="translate(140, 135) rotate(15)" filter="url(#shadow)">
    <rect x="-15" y="-20" width="30" height="40" rx="2" fill="white" />
    <line x1="-8" y1="-10" x2="8" y2="-10" stroke="#6366f1" stroke-width="2" />
    <line x1="-8" y1="-5" x2="8" y2="-5" stroke="#6366f1" stroke-width="2" />
    <line x1="-8" y1="0" x2="8" y2="0" stroke="#6366f1" stroke-width="2" />
    <line x1="-8" y1="5" x2="4" y2="5" stroke="#6366f1" stroke-width="2" />
  </g>
</svg>